{
    "asset" : {
        "generator" : "Khronos glTF Blender I/O v3.2.43",
        "version" : "2.0"
    },
    "scene" : 0,
    "scenes" : [
        {
            "name" : "Scene",
            "nodes" : [
                0
            ]
        }
    ],
    "nodes" : [
        {
            "mesh" : 0,
            "name" : "Object001",
            "rotation" : [
                0.7071068286895752,
                0,
                0,
                0.7071067094802856
            ],
            "scale" : [
                0.0017860645893961191,
                0.0017860645893961191,
                0.0017860645893961191
            ],
            "translation" : [
                0.015311123803257942,
                1.100127935409546,
                0.055846139788627625
            ]
        }
    ],
    "materials" : [
        {
            "doubleSided" : true,
            "name" : "Material #102",
            "pbrMetallicRoughness" : {
                "baseColorTexture" : {
                    "index" : 0
                },
                "roughnessFactor" : 0.858578622341156
            }
        }
    ],
    "meshes" : [
        {
            "name" : "Mesh",
            "primitives" : [
                {
                    "attributes" : {
                        "POSITION" : 0,
                        "NORMAL" : 1,
                        "TEXCOORD_0" : 2
                    },
                    "indices" : 3,
                    "material" : 0
                }
            ]
        }
    ],
    "textures" : [
        {
            "sampler" : 0,
            "source" : 0
        }
    ],
    "images" : [
        {
            "bufferView" : 4,
            "mimeType" : "image/jpeg",
            "name" : "DefaultMaterial_albedo"
        }
    ],
    "accessors" : [
        {
            "bufferView" : 0,
            "componentType" : 5126,
            "count" : 1149,
            "max" : [
                120.79597473144531,
                64.87628936767578,
                599.061767578125
            ],
            "min" : [
                -137.94107055664062,
                -127.41167449951172,
                -66.9288101196289
            ],
            "type" : "VEC3"
        },
        {
            "bufferView" : 1,
            "componentType" : 5126,
            "count" : 1149,
            "type" : "VEC3"
        },
        {
            "bufferView" : 2,
            "componentType" : 5126,
            "count" : 1149,
            "type" : "VEC2"
        },
        {
            "bufferView" : 3,
            "componentType" : 5123,
            "count" : 3642,
            "type" : "SCALAR"
        }
    ],
    "bufferViews" : [
        {
            "buffer" : 0,
            "byteLength" : 13788,
            "byteOffset" : 0
        },
        {
            "buffer" : 0,
            "byteLength" : 13788,
            "byteOffset" : 13788
        },
        {
            "buffer" : 0,
            "byteLength" : 9192,
            "byteOffset" : 27576
        },
        {
            "buffer" : 0,
            "byteLength" : 7284,
            "byteOffset" : 36768
        },
        {
            "buffer" : 0,
            "byteLength" : 863046,
            "byteOffset" : 44052
        }
    ],
    "samplers" : [
        {
            "magFilter" : 9729,
            "minFilter" : 9987
        }
    ],
    "buffers" : [
        {
            "byteLength" : 907100,
            "uri" : "data:application/octet-stream;base64,"
        }
    ]
}
