{
    "asset" : {
        "generator" : "Khronos glTF Blender I/O v3.2.43",
        "version" : "2.0"
    },
    "scene" : 0,
    "scenes" : [
        {
            "name" : "Scene",
            "nodes" : [
                1
            ]
        }
    ],
    "nodes" : [
        {
            "mesh" : 0,
            "name" : "Connecting_part",
            "rotation" : [
                0.6973568797111511,
                0.11701900511980057,
                0.11701902747154236,
                0.6973568201065063
            ],
            "scale" : [
                0.05869361758232117,
                0.05869361758232117,
                0.058693621307611465
            ],
            "translation" : [
                -0.0005509178736247122,
                -0.0034940801560878754,
                -0.08005543053150177
            ]
        },
        {
            "children" : [
                0
            ],
            "name" : "Empty",
            "rotation" : [
                0.0012717974605038762,
                0.001971371239051223,
                0.010665626265108585,
                0.9999403953552246
            ]
        }
    ],
    "materials" : [
        {
            "doubleSided" : true,
            "name" : "Connecting_part_material",
            "pbrMetallicRoughness" : {
                "baseColorFactor" : [
                    0.5,
                    0.5,
                    0.5,
                    1
                ],
                "metallicFactor" : 0,
                "roughnessFactor" : 0.3291796147823334
            }
        }
    ],
    "meshes" : [
        {
            "name" : "Mesh.027",
            "primitives" : [
                {
                    "attributes" : {
                        "POSITION" : 0,
                        "NORMAL" : 1,
                        "TEXCOORD_0" : 2
                    },
                    "indices" : 3,
                    "material" : 0
                }
            ]
        }
    ],
    "accessors" : [
        {
            "bufferView" : 0,
            "componentType" : 5126,
            "count" : 2766,
            "max" : [
                5.867252349853516,
                4.199209213256836,
                1.4416427612304688
            ],
            "min" : [
                -1.4301071166992188,
                0.06827449798583984,
                -13.934968948364258
            ],
            "type" : "VEC3"
        },
        {
            "bufferView" : 1,
            "componentType" : 5126,
            "count" : 2766,
            "type" : "VEC3"
        },
        {
            "bufferView" : 2,
            "componentType" : 5126,
            "count" : 2766,
            "type" : "VEC2"
        },
        {
            "bufferView" : 3,
            "componentType" : 5123,
            "count" : 15168,
            "type" : "SCALAR"
        }
    ],
    "bufferViews" : [
        {
            "buffer" : 0,
            "byteLength" : 33192,
            "byteOffset" : 0
        },
        {
            "buffer" : 0,
            "byteLength" : 33192,
            "byteOffset" : 33192
        },
        {
            "buffer" : 0,
            "byteLength" : 22128,
            "byteOffset" : 66384
        },
        {
            "buffer" : 0,
            "byteLength" : 30336,
            "byteOffset" : 88512
        }
    ],
    "buffers" : [
        {
            "byteLength" : 118848,
            "uri" : "data:application/octet-stream;base64,"
        }
    ]
}
